# xmcd
#
# Track frame offsets: 
#        183
#        35523
#        65413
#        85075
#        108785
#        132955
#        147888
#        170990
#        195745
#
# Disc length: 2777 seconds
#
# Revision: 8
# Processed by: cddbd v1.5.2PL0 Copyright (c) Steve Scherf et al.
# Submitted via: ExactAudioCopy v0.99pb5
#
DISCID=7c0ad709
DTITLE=Alpha Blondy And The Wailers - Jerusalem
DYEAR=1986
DGENRE=Reggae
TTITLE0=Jerusalem
TTITLE1=Politiqui
TTITLE2=Bloodshed In Africa
TTITLE3=I Love Paris
TTITLE4=Kalachnikov Love
TTITLE5=Travailler C'est Trop Dur
TTITLE6=Miwa
TTITLE7=Boulevard De La Mort
TTITLE8=Dji
EXTD=YEAR: 1986
EXTT0=
EXTT1=
EXTT2=
EXTT3=
EXTT4=
EXTT5=
EXTT6=
EXTT7=
EXTT8=
PLAYORDER=
